<svg width="70" height="69" viewBox="0 0 70 69" fill="none" xmlns="http://www.w3.org/2000/svg">
<path d="M63.125 50.125V22H19.375V50.125H63.125ZM63.125 6.375C64.7826 6.375 66.3723 7.03348 67.5444 8.20558C68.7165 9.37768 69.375 10.9674 69.375 12.625V50.125C69.375 51.7826 68.7165 53.3723 67.5444 54.5444C66.3723 55.7165 64.7826 56.375 63.125 56.375H19.375C15.9062 56.375 13.125 53.5625 13.125 50.125V12.625C13.125 10.9674 13.7835 9.37768 14.9556 8.20558C16.1277 7.03348 17.7174 6.375 19.375 6.375H22.5V0.125H28.75V6.375H53.75V0.125H60V6.375H63.125ZM52.2813 31.5625L38.4062 45.4375L30.0312 37.0625L33.3438 33.75L38.4062 38.8125L48.9687 28.25L52.2813 31.5625ZM6.875 62.625H50.625V68.875H6.875C3.40625 68.875 0.625 66.0625 0.625 62.625V25.125H6.875V62.625Z" fill="white"/>
</svg>
