<svg width="76" height="75" viewBox="0 0 76 75" fill="none" xmlns="http://www.w3.org/2000/svg">
<path d="M33.3125 56.25C33.7269 56.25 34.1243 56.4146 34.4173 56.7076C34.7104 57.0007 34.875 57.3981 34.875 57.8125C34.875 58.2269 34.7104 58.6243 34.4173 58.9174C34.1243 59.2104 33.7269 59.375 33.3125 59.375C32.8981 59.375 32.5007 59.2104 32.2076 58.9174C31.9146 58.6243 31.75 58.2269 31.75 57.8125C31.75 57.3981 31.9146 57.0007 32.2076 56.7076C32.5007 56.4146 32.8981 56.25 33.3125 56.25ZM42.6875 56.25C43.1019 56.25 43.4993 56.4146 43.7923 56.7076C44.0854 57.0007 44.25 57.3981 44.25 57.8125C44.25 58.2269 44.0854 58.6243 43.7923 58.9174C43.4993 59.2104 43.1019 59.375 42.6875 59.375C42.2731 59.375 41.8757 59.2104 41.5826 58.9174C41.2896 58.6243 41.125 58.2269 41.125 57.8125C41.125 57.3981 41.2896 57.0007 41.5826 56.7076C41.8757 56.4146 42.2731 56.25 42.6875 56.25ZM31.75 34.375C32.5788 34.375 33.3736 34.7042 33.9597 35.2903C34.5457 35.8763 34.875 36.6712 34.875 37.5C34.875 38.3288 34.5457 39.1237 33.9597 39.7097C33.3736 40.2958 32.5788 40.625 31.75 40.625C30.9212 40.625 30.1263 40.2958 29.5403 39.7097C28.9542 39.1237 28.625 38.3288 28.625 37.5C28.625 36.6712 28.9542 35.8763 29.5403 35.2903C30.1263 34.7042 30.9212 34.375 31.75 34.375ZM44.25 34.375C45.0788 34.375 45.8736 34.7042 46.4597 35.2903C47.0457 35.8763 47.375 36.6712 47.375 37.5C47.375 38.3288 47.0457 39.1237 46.4597 39.7097C45.8736 40.2958 45.0788 40.625 44.25 40.625C43.4212 40.625 42.6263 40.2958 42.0403 39.7097C41.4542 39.1237 41.125 38.3288 41.125 37.5C41.125 36.6712 41.4542 35.8763 42.0403 35.2903C42.6263 34.7042 43.4212 34.375 44.25 34.375ZM56.75 56.25C56.75 63.1562 48.3437 68.75 38 68.75C27.6562 68.75 19.25 63.1562 19.25 56.25C19.25 53.4375 20.6562 50.8438 23 48.75C20.6562 45.625 19.25 41.7188 19.25 37.5L19.625 33.6875C17.9375 34.1562 15.9062 34.1562 14.25 33.6875C11.0625 32.8125 6.24999 29.2188 6.96874 26.7188C7.68749 24.2188 13.6562 23.75 16.8437 24.6875C18.6875 25.2188 20.6562 26.5625 21.8125 28L23.5937 25.4687C21.7187 22.0312 22.375 12.5 31.75 9.375L31.4687 9.8125C30.5937 11.1875 28.3437 15.5312 30.7187 20.2187C32.9687 19.2812 35.4062 18.75 38 18.75C40.5937 18.75 43.0312 19.2812 45.2812 20.2187C47.6562 15.5312 45.4062 11.1875 44.5312 9.8125L44.25 9.375C53.625 12.5 54.2812 22.0312 52.4062 25.4687L54.1875 28C55.3437 26.5625 57.3125 25.2188 59.1562 24.6875C62.3437 23.75 68.3125 24.2188 69.0312 26.7188C69.75 29.2188 64.9375 32.8125 61.75 33.6875C60.0937 34.1562 58.0625 34.1562 56.375 33.6875L56.75 37.5C56.75 41.7188 55.3437 45.625 53 48.75C55.3437 50.8438 56.75 53.4375 56.75 56.25ZM38 50C31.0937 50 25.5 52.8125 25.5 56.25C25.5 59.6875 31.0937 62.5 38 62.5C44.9062 62.5 50.5 59.6875 50.5 56.25C50.5 52.8125 44.9062 50 38 50ZM38 43.75C41.5 43.75 44.7812 44.4062 47.5937 45.5C49.4062 43.3438 50.5 40.625 50.5 37.5C50.5 34.1848 49.183 31.0054 46.8388 28.6612C44.4946 26.317 41.3152 25 38 25C34.6848 25 31.5054 26.317 29.1612 28.6612C26.8169 31.0054 25.5 34.1848 25.5 37.5C25.5 40.625 26.5937 43.3438 28.4062 45.5C31.2187 44.4062 34.5 43.75 38 43.75Z" fill="white"/>
</svg>
