<svg width="64" height="53" viewBox="0 0 64 53" fill="none" xmlns="http://www.w3.org/2000/svg">
<path d="M17.9375 0.5C13.3791 0.5 9.00738 2.31082 5.7841 5.5341C2.56082 8.75738 0.75 13.1291 0.75 17.6875C0.75 19.25 1.03125 20.8125 1.4375 22.375H14.1875L18.1562 11.8438C19.0938 9.34375 22.7812 9.09375 23.9688 11.8438L30.4375 28.625L32.2812 24.1875C32.6875 23.1563 33.7812 22.375 35.125 22.375H62.5625C62.9688 20.8125 63.25 19.25 63.25 17.6875C63.25 13.1291 61.4392 8.75738 58.2159 5.5341C54.9926 2.31082 50.6209 0.5 46.0625 0.5C40.25 0.5 35.125 3.40625 32 7.8125C28.875 3.40625 23.75 0.5 17.9375 0.5ZM3.875 27.0625C3.0462 27.0625 2.25134 27.3917 1.66529 27.9778C1.07924 28.5638 0.75 29.3587 0.75 30.1875C0.75 31.0163 1.07924 31.8112 1.66529 32.3972C2.25134 32.9833 3.0462 33.3125 3.875 33.3125H11.5L28.875 50.5C32 53.3125 32 53.3125 35.125 50.5L52.5 33.3125H60.125C60.9538 33.3125 61.7487 32.9833 62.3347 32.3972C62.9208 31.8112 63.25 31.0163 63.25 30.1875C63.25 29.3587 62.9208 28.5638 62.3347 27.9778C61.7487 27.3917 60.9538 27.0625 60.125 27.0625H36.375L33.4688 34.25C32.2188 37.4063 28.625 36.9688 27.4688 34.3438L21.0625 17.6875L18.0625 24.9688C17.5937 26.1563 16.5312 27.0625 15.125 27.0625H3.875Z" fill="white"/>
</svg>
