<svg width="64" height="63" viewBox="0 0 64 63" fill="none" xmlns="http://www.w3.org/2000/svg">
<path d="M35.125 22.125H28.875V15.875H35.125V22.125ZM35.125 47.125H28.875V28.375H35.125V47.125ZM32 0.25C27.8962 0.25 23.8326 1.05831 20.0411 2.62876C16.2497 4.19922 12.8047 6.50108 9.90291 9.40291C4.0424 15.2634 0.75 23.212 0.75 31.5C0.75 39.788 4.0424 47.7366 9.90291 53.5971C12.8047 56.4989 16.2497 58.8008 20.0411 60.3712C23.8326 61.9417 27.8962 62.75 32 62.75C40.288 62.75 48.2366 59.4576 54.0971 53.5971C59.9576 47.7366 63.25 39.788 63.25 31.5C63.25 27.3962 62.4417 23.3326 60.8712 19.5411C59.3008 15.7497 56.9989 12.3047 54.0971 9.40291C51.1953 6.50108 47.7503 4.19922 43.9589 2.62876C40.1674 1.05831 36.1038 0.25 32 0.25Z" fill="white"/>
</svg>
